<svg data-v-423bf9ae="" xmlns="http://www.w3.org/2000/svg" viewBox="0 0 619 90" class="iconLeftSlogan"><!----><!----><!----><g data-v-423bf9ae="" id="616fc5f6-0d64-4fbc-996d-63a1928f037b" fill="#0F104F" transform="matrix(4.8426148779193,0,0,4.8426148779193,104.95543612458664,-17.62711937889251)"><path d="M4.48 3.64L4.48 3.64Q6.96 3.64 8.05 5.60L8.05 5.60L7.08 6.38L7.08 6.38Q6.66 5.46 6.08 5.07L6.08 5.07L6.08 5.07Q5.50 4.69 4.49 4.69L4.49 4.69L4.49 4.69Q3.43 4.69 2.82 5.13L2.82 5.13L2.82 5.13Q2.21 5.57 2.21 6.26L2.21 6.26L2.21 6.26Q2.21 6.71 2.45 7.00L2.45 7.00L2.45 7.00Q2.69 7.29 3.24 7.51L3.24 7.51L3.24 7.51Q3.79 7.73 4.77 7.90L4.77 7.90L4.77 7.90Q6.61 8.20 7.37 8.82L7.37 8.82L7.37 8.82Q8.13 9.44 8.13 10.53L8.13 10.53L8.13 10.53Q8.13 11.31 7.69 11.91L7.69 11.91L7.69 11.91Q7.25 12.50 6.44 12.83L6.44 12.83L6.44 12.83Q5.63 13.16 4.56 13.16L4.56 13.16L4.56 13.16Q3.16 13.16 2.18 12.61L2.18 12.61L2.18 12.61Q1.19 12.07 0.67 11.16L0.67 11.16L1.64 10.37L1.64 10.37Q2.02 11.20 2.75 11.65L2.75 11.65L2.75 11.65Q3.49 12.11 4.59 12.11L4.59 12.11L4.59 12.11Q5.68 12.11 6.33 11.71L6.33 11.71L6.33 11.71Q6.97 11.31 6.97 10.58L6.97 10.58L6.97 10.58Q6.97 9.97 6.41 9.60L6.41 9.60L6.41 9.60Q5.85 9.24 4.42 8.99L4.42 8.99L4.42 8.99Q2.58 8.67 1.81 8.06L1.81 8.06L1.81 8.06Q1.04 7.46 1.04 6.38L1.04 6.38L1.04 6.38Q1.04 5.64 1.46 5.01L1.46 5.01L1.46 5.01Q1.88 4.38 2.66 4.01L2.66 4.01L2.66 4.01Q3.44 3.64 4.48 3.64L4.48 3.64ZM16.28 9.16L16.28 9.16Q16.28 9.55 16.23 9.94L16.23 9.94L10.95 9.94L10.95 9.94Q11.05 11.00 11.66 11.59L11.66 11.59L11.66 11.59Q12.26 12.18 13.23 12.18L13.23 12.18L13.23 12.18Q14 12.18 14.51 11.91L14.51 11.91L14.51 11.91Q15.02 11.65 15.20 11.14L15.20 11.14L16.14 11.63L16.14 11.63Q15.72 12.38 15.02 12.77L15.02 12.77L15.02 12.77Q14.32 13.16 13.23 13.16L13.23 13.16L13.23 13.16Q11.65 13.16 10.75 12.19L10.75 12.19L10.75 12.19Q9.84 11.23 9.84 9.52L9.84 9.52L9.84 9.52Q9.84 7.81 10.70 6.85L10.70 6.85L10.70 6.85Q11.56 5.88 13.15 5.88L13.15 5.88L13.15 5.88Q14.13 5.88 14.84 6.31L14.84 6.31L14.84 6.31Q15.55 6.75 15.92 7.49L15.92 7.49L15.92 7.49Q16.28 8.23 16.28 9.16L16.28 9.16ZM13.15 6.86L13.15 6.86Q12.22 6.86 11.66 7.41L11.66 7.41L11.66 7.41Q11.09 7.95 10.96 8.95L10.96 8.95L15.20 8.95L15.20 8.95Q15.09 7.97 14.56 7.41L14.56 7.41L14.56 7.41Q14.03 6.86 13.15 6.86L13.15 6.86ZM21.71 5.88L21.71 5.88Q22.22 5.88 22.48 6.02L22.48 6.02L22.26 7.11L22.26 7.11Q21.92 6.93 21.38 6.93L21.38 6.93L21.38 6.93Q20.93 6.93 20.50 7.19L20.50 7.19L20.50 7.19Q20.08 7.45 19.80 7.97L19.80 7.97L19.80 7.97Q19.53 8.50 19.53 9.24L19.53 9.24L19.53 13.02L18.41 13.02L18.41 6.02L19.32 6.02L19.47 7.17L19.47 7.17Q20.06 5.88 21.71 5.88L21.71 5.88ZM28.76 6.02L29.93 6.02L27.02 13.02L25.90 13.02L22.99 6.02L24.26 6.02L26.47 11.89L28.76 6.02ZM37.41 9.16L37.41 9.16Q37.41 9.55 37.35 9.94L37.35 9.94L32.07 9.94L32.07 9.94Q32.17 11.00 32.78 11.59L32.78 11.59L32.78 11.59Q33.39 12.18 34.36 12.18L34.36 12.18L34.36 12.18Q35.13 12.18 35.64 11.91L35.64 11.91L35.64 11.91Q36.15 11.65 36.33 11.14L36.33 11.14L37.27 11.63L37.27 11.63Q36.85 12.38 36.15 12.77L36.15 12.77L36.15 12.77Q35.45 13.16 34.36 13.16L34.36 13.16L34.36 13.16Q32.77 13.16 31.87 12.19L31.87 12.19L31.87 12.19Q30.97 11.23 30.97 9.52L30.97 9.52L30.97 9.52Q30.97 7.81 31.83 6.85L31.83 6.85L31.83 6.85Q32.69 5.88 34.27 5.88L34.27 5.88L34.27 5.88Q35.25 5.88 35.97 6.31L35.97 6.31L35.97 6.31Q36.68 6.75 37.04 7.49L37.04 7.49L37.04 7.49Q37.41 8.23 37.41 9.16L37.41 9.16ZM34.27 6.86L34.27 6.86Q33.35 6.86 32.78 7.41L32.78 7.41L32.78 7.41Q32.21 7.95 32.09 8.95L32.09 8.95L36.33 8.95L36.33 8.95Q36.22 7.97 35.69 7.41L35.69 7.41L35.69 7.41Q35.15 6.86 34.27 6.86L34.27 6.86ZM42.84 5.88L42.84 5.88Q43.34 5.88 43.61 6.02L43.61 6.02L43.39 7.11L43.39 7.11Q43.05 6.93 42.50 6.93L42.50 6.93L42.50 6.93Q42.06 6.93 41.63 7.19L41.63 7.19L41.63 7.19Q41.20 7.45 40.93 7.97L40.93 7.97L40.93 7.97Q40.66 8.50 40.66 9.24L40.66 9.24L40.66 13.02L39.54 13.02L39.54 6.02L40.45 6.02L40.60 7.17L40.60 7.17Q41.19 5.88 42.84 5.88L42.84 5.88ZM58.84 3.78L58.84 13.02L57.78 13.02L57.78 7.21L57.90 4.77L57.89 4.77L54.85 13.02L53.90 13.02L50.86 4.77L50.85 4.77L50.97 7.21L50.97 13.02L49.91 13.02L49.91 3.78L51.63 3.78L53.66 9.39L54.36 11.70L54.39 11.70L55.10 9.41L57.12 3.78L58.84 3.78ZM67.31 12.21L67.31 12.21Q67.59 12.21 67.87 12.14L67.87 12.14L67.80 13.02L67.80 13.02Q67.41 13.16 66.96 13.16L66.96 13.16L66.96 13.16Q66.42 13.16 66.10 12.92L66.10 12.92L66.10 12.92Q65.79 12.68 65.70 12.12L65.70 12.12L65.70 12.12Q65.38 12.61 64.76 12.89L64.76 12.89L64.76 12.89Q64.13 13.16 63.45 13.16L63.45 13.16L63.45 13.16Q62.41 13.16 61.74 12.68L61.74 12.68L61.74 12.68Q61.07 12.19 61.07 11.28L61.07 11.28L61.07 11.28Q61.07 10.49 61.77 9.90L61.77 9.90L61.77 9.90Q62.47 9.32 63.80 9.10L63.80 9.10L65.66 8.79L65.66 8.40L65.66 8.40Q65.66 7.70 65.23 7.28L65.23 7.28L65.23 7.28Q64.79 6.86 64.02 6.86L64.02 6.86L64.02 6.86Q63.32 6.86 62.81 7.20L62.81 7.20L62.81 7.20Q62.30 7.53 62.02 8.19L62.02 8.19L61.19 7.59L61.19 7.59Q61.47 6.80 62.24 6.34L62.24 6.34L62.24 6.34Q63.00 5.88 64.02 5.88L64.02 5.88L64.02 5.88Q65.27 5.88 66.02 6.48L66.02 6.48L66.02 6.48Q66.78 7.08 66.78 8.26L66.78 8.26L66.78 11.70L66.78 11.70Q66.78 11.96 66.91 12.08L66.91 12.08L66.91 12.08Q67.03 12.21 67.31 12.21L67.31 12.21ZM63.50 12.18L63.50 12.18Q64.39 12.18 65.02 11.76L65.02 11.76L65.02 11.76Q65.66 11.34 65.66 10.67L65.66 10.67L65.66 9.70L64.09 10.00L64.09 10.00Q63.15 10.16 62.69 10.48L62.69 10.48L62.69 10.48Q62.23 10.79 62.23 11.28L62.23 11.28L62.23 11.28Q62.23 11.72 62.57 11.95L62.57 11.95L62.57 11.95Q62.90 12.18 63.50 12.18L63.50 12.18ZM72.90 5.88L72.90 5.88Q74.09 5.88 74.86 6.57L74.86 6.57L74.86 6.57Q75.63 7.25 75.63 8.54L75.63 8.54L75.63 13.02L74.51 13.02L74.51 8.93L74.51 8.93Q74.51 7.84 74.04 7.35L74.04 7.35L74.04 7.35Q73.57 6.86 72.79 6.86L72.79 6.86L72.79 6.86Q72.23 6.86 71.74 7.10L71.74 7.10L71.74 7.10Q71.25 7.35 70.93 7.90L70.93 7.90L70.93 7.90Q70.62 8.46 70.62 9.30L70.62 9.30L70.62 13.02L69.50 13.02L69.50 6.02L70.48 6.02L70.55 7.11L70.55 7.11Q70.90 6.48 71.51 6.18L71.51 6.18L71.51 6.18Q72.13 5.88 72.90 5.88L72.90 5.88ZM83.90 12.21L83.90 12.21Q84.18 12.21 84.46 12.14L84.46 12.14L84.39 13.02L84.39 13.02Q84 13.16 83.55 13.16L83.55 13.16L83.55 13.16Q83.01 13.16 82.69 12.92L82.69 12.92L82.69 12.92Q82.38 12.68 82.29 12.12L82.29 12.12L82.29 12.12Q81.97 12.61 81.35 12.89L81.35 12.89L81.35 12.89Q80.72 13.16 80.04 13.16L80.04 13.16L80.04 13.16Q79.00 13.16 78.33 12.68L78.33 12.68L78.33 12.68Q77.66 12.19 77.66 11.28L77.66 11.28L77.66 11.28Q77.66 10.49 78.36 9.90L78.36 9.90L78.36 9.90Q79.06 9.32 80.39 9.10L80.39 9.10L82.25 8.79L82.25 8.40L82.25 8.40Q82.25 7.70 81.82 7.28L81.82 7.28L81.82 7.28Q81.38 6.86 80.61 6.86L80.61 6.86L80.61 6.86Q79.91 6.86 79.40 7.20L79.40 7.20L79.40 7.20Q78.89 7.53 78.61 8.19L78.61 8.19L77.78 7.59L77.78 7.59Q78.06 6.80 78.83 6.34L78.83 6.34L78.83 6.34Q79.59 5.88 80.61 5.88L80.61 5.88L80.61 5.88Q81.86 5.88 82.61 6.48L82.61 6.48L82.61 6.48Q83.37 7.08 83.37 8.26L83.37 8.26L83.37 11.70L83.37 11.70Q83.37 11.96 83.50 12.08L83.50 12.08L83.50 12.08Q83.62 12.21 83.90 12.21L83.90 12.21ZM80.09 12.18L80.09 12.18Q80.98 12.18 81.61 11.76L81.61 11.76L81.61 11.76Q82.25 11.34 82.25 10.67L82.25 10.67L82.25 9.70L80.68 10.00L80.68 10.00Q79.74 10.16 79.28 10.48L79.28 10.48L79.28 10.48Q78.82 10.79 78.82 11.28L78.82 11.28L78.82 11.28Q78.82 11.72 79.16 11.95L79.16 11.95L79.16 11.95Q79.49 12.18 80.09 12.18L80.09 12.18ZM89.99 12.12L89.99 12.12Q90.99 12.12 91.55 12.57L91.55 12.57L91.55 12.57Q92.11 13.02 92.11 13.79L92.11 13.79L92.11 13.79Q92.11 14.46 91.64 14.97L91.64 14.97L91.64 14.97Q91.18 15.48 90.39 15.76L90.39 15.76L90.39 15.76Q89.60 16.03 88.65 16.03L88.65 16.03L88.65 16.03Q87.05 16.03 86.24 15.52L86.24 15.52L86.24 15.52Q85.43 15.01 85.43 14.18L85.43 14.18L85.43 14.18Q85.43 13.71 85.76 13.34L85.76 13.34L85.76 13.34Q86.09 12.98 86.66 12.82L86.66 12.82L86.66 12.82Q86.23 12.61 85.97 12.29L85.97 12.29L85.97 12.29Q85.71 11.97 85.71 11.54L85.71 11.54L85.71 11.54Q85.71 11.02 85.99 10.67L85.99 10.67L85.99 10.67Q86.27 10.33 86.76 10.16L86.76 10.16L86.76 10.16Q86.25 9.86 86.00 9.36L86.00 9.36L86.00 9.36Q85.74 8.86 85.74 8.25L85.74 8.25L85.74 8.25Q85.74 7.56 86.10 7.02L86.10 7.02L86.10 7.02Q86.46 6.48 87.12 6.18L87.12 6.18L87.12 6.18Q87.78 5.88 88.61 5.88L88.61 5.88L88.61 5.88Q89.39 5.88 90.03 6.16L90.03 6.16L90.03 6.16Q90.43 4.73 92.01 4.73L92.01 4.73L92.26 5.71L92.26 5.71Q90.89 5.71 90.59 6.48L90.59 6.48L90.59 6.48Q91.01 6.80 91.25 7.25L91.25 7.25L91.25 7.25Q91.48 7.70 91.48 8.25L91.48 8.25L91.48 8.25Q91.48 8.93 91.11 9.47L91.11 9.47L91.11 9.47Q90.75 10.01 90.09 10.31L90.09 10.31L90.09 10.31Q89.43 10.61 88.61 10.61L88.61 10.61L88.61 10.61Q87.99 10.61 87.53 10.49L87.53 10.49L87.53 10.49Q87.11 10.58 86.93 10.79L86.93 10.79L86.93 10.79Q86.74 11.00 86.74 11.37L86.74 11.37L86.74 11.37Q86.74 11.73 87.00 11.93L87.00 11.93L87.00 11.93Q87.25 12.12 87.67 12.12L87.67 12.12L89.99 12.12ZM88.61 6.79L88.61 6.79Q87.88 6.79 87.39 7.20L87.39 7.20L87.39 7.20Q86.90 7.60 86.90 8.25L86.90 8.25L86.90 8.25Q86.90 8.89 87.39 9.30L87.39 9.30L87.39 9.30Q87.88 9.70 88.61 9.70L88.61 9.70L88.61 9.70Q89.33 9.70 89.82 9.30L89.82 9.30L89.82 9.30Q90.31 8.89 90.31 8.25L90.31 8.25L90.31 8.25Q90.31 7.60 89.82 7.20L89.82 7.20L89.82 7.20Q89.33 6.79 88.61 6.79L88.61 6.79ZM88.77 15.09L88.77 15.09Q89.84 15.09 90.45 14.75L90.45 14.75L90.45 14.75Q91.07 14.41 91.07 13.92L91.07 13.92L91.07 13.92Q91.07 13.51 90.76 13.30L90.76 13.30L90.76 13.30Q90.44 13.09 89.68 13.09L89.68 13.09L87.81 13.09L87.81 13.09Q87.16 13.09 86.81 13.32L86.81 13.32L86.81 13.32Q86.46 13.55 86.46 13.96L86.46 13.96L86.46 13.96Q86.46 14.49 87.05 14.79L87.05 14.79L87.05 14.79Q87.64 15.09 88.77 15.09L88.77 15.09ZM99.78 9.16L99.78 9.16Q99.78 9.55 99.72 9.94L99.72 9.94L94.44 9.94L94.44 9.94Q94.54 11.00 95.15 11.59L95.15 11.59L95.15 11.59Q95.76 12.18 96.73 12.18L96.73 12.18L96.73 12.18Q97.50 12.18 98.01 11.91L98.01 11.91L98.01 11.91Q98.52 11.65 98.70 11.14L98.70 11.14L99.64 11.63L99.64 11.63Q99.22 12.38 98.52 12.77L98.52 12.77L98.52 12.77Q97.82 13.16 96.73 13.16L96.73 13.16L96.73 13.16Q95.14 13.16 94.24 12.19L94.24 12.19L94.24 12.19Q93.34 11.23 93.34 9.52L93.34 9.52L93.34 9.52Q93.34 7.81 94.20 6.85L94.20 6.85L94.20 6.85Q95.06 5.88 96.64 5.88L96.64 5.88L96.64 5.88Q97.62 5.88 98.34 6.31L98.34 6.31L98.34 6.31Q99.05 6.75 99.41 7.49L99.41 7.49L99.41 7.49Q99.78 8.23 99.78 9.16L99.78 9.16ZM96.64 6.86L96.64 6.86Q95.72 6.86 95.15 7.41L95.15 7.41L95.15 7.41Q94.58 7.95 94.46 8.95L94.46 8.95L98.70 8.95L98.70 8.95Q98.59 7.97 98.06 7.41L98.06 7.41L98.06 7.41Q97.52 6.86 96.64 6.86L96.64 6.86ZM105.21 5.88L105.21 5.88Q105.71 5.88 105.98 6.02L105.98 6.02L105.76 7.11L105.76 7.11Q105.42 6.93 104.87 6.93L104.87 6.93L104.87 6.93Q104.43 6.93 104.00 7.19L104.00 7.19L104.00 7.19Q103.57 7.45 103.30 7.97L103.30 7.97L103.30 7.97Q103.03 8.50 103.03 9.24L103.03 9.24L103.03 13.02L101.91 13.02L101.91 6.02L102.82 6.02L102.97 7.17L102.97 7.17Q103.56 5.88 105.21 5.88L105.21 5.88Z"></path></g><defs data-v-423bf9ae=""><linearGradient data-v-423bf9ae="" gradientTransform="rotate(25)" id="6a59622f-c8a4-4352-a49f-f4feccc67217" x1="0%" y1="0%" x2="100%" y2="0%"><stop data-v-423bf9ae="" offset="0%" style="stop-color: rgb(13, 33, 117); stop-opacity: 1;"></stop><stop data-v-423bf9ae="" offset="100%" style="stop-color: rgb(31, 30, 251); stop-opacity: 1;"></stop></linearGradient></defs><g data-v-423bf9ae="" id="2b7967af-bab4-441f-9225-6e975c235827" transform="matrix(1.8,0,0,1.8,-0.8999999999999986,0)" stroke="none" fill="url(#6a59622f-c8a4-4352-a49f-f4feccc67217)"><path d="M50 18H1V0h49v18zM4 15h43V3H4v12zM50 39H1V21h49v18zM4 36h43V24H4v12z"></path><path d="M22 37h7v9h-7zM14 46h23v4H14zM4 46h6v4H4zM41 46h6v4h-6z"></path><circle cx="10.574" cy="9.186" r="2.729"></circle><circle cx="19.212" cy="9.186" r="2.729"></circle><path d="M35 7h5v5h-5z"></path><circle cx="10.574" cy="29.931" r="2.729"></circle><circle cx="19.212" cy="29.931" r="2.729"></circle><path d="M35 28h5v4h-5z"></path></g><!----><g data-v-423bf9ae="" id="014879c2-540d-4aa3-ab36-83b90dbe6629" fill="#0F104F" transform="matrix(0.85915985957764,0,0,0.85915985957764,107.89929165812234,57.64590262900558)"><path d="M0.35 10.04L0.35 10.04L0.84 9.98L1.03 10.85L1.03 10.85Q1.13 11.33 1.20 11.41L1.20 11.41L1.20 11.41Q1.27 11.49 1.68 11.64L1.68 11.64L1.68 11.64Q2.52 11.95 3.42 11.95L3.42 11.95L3.42 11.95Q4.20 11.95 4.74 11.49L4.74 11.49L4.74 11.49Q5.28 11.04 5.28 10.26L5.28 10.26L5.28 10.26Q5.28 9.65 4.82 9.21L4.82 9.21L4.82 9.21Q4.34 8.76 3.49 8.30L3.49 8.30L2.91 7.98L2.91 7.98Q2.17 7.55 1.93 7.36L1.93 7.36L1.93 7.36Q1.57 7.08 1.26 6.59L1.26 6.59L1.26 6.59Q0.95 6.10 0.95 5.46L0.95 5.46L0.95 5.46Q0.95 4.39 1.79 3.68L1.79 3.68L1.79 3.68Q2.63 2.97 3.74 2.97L3.74 2.97L3.74 2.97Q4.02 2.97 4.37 3.04L4.37 3.04L4.37 3.04Q4.57 3.08 4.90 3.17L4.90 3.17L5.14 3.25L5.14 3.25Q5.24 3.25 5.28 3.16L5.28 3.16L5.28 3.16Q5.33 3.05 5.33 2.98L5.33 2.98L5.35 2.88L5.82 2.85L6.04 5.41L5.53 5.43L5.41 4.18L5.41 4.18Q4.66 3.62 3.50 3.62L3.50 3.62L3.50 3.62Q2.86 3.62 2.35 4.05L2.35 4.05L2.35 4.05Q1.87 4.47 1.87 5.12L1.87 5.12L1.87 5.12Q1.87 5.72 2.32 6.17L2.32 6.17L2.32 6.17Q2.75 6.60 3.62 7.08L3.62 7.08L4.40 7.50L4.40 7.50Q5.35 8.03 5.88 8.59L5.88 8.59L5.88 8.59Q6.41 9.15 6.41 9.92L6.41 9.92L6.41 9.92Q6.41 10.99 5.56 11.76L5.56 11.76L5.56 11.76Q4.69 12.54 3.23 12.54L3.23 12.54L3.23 12.54Q2.67 12.54 2.17 12.41L2.17 12.41L2.17 12.41Q1.67 12.29 1.61 12.29L1.61 12.29L1.61 12.29Q1.36 12.29 1.36 12.58L1.36 12.58L1.37 12.76L0.90 12.80L0.90 12.80Q0.83 12.41 0.35 10.04ZM14.61 3.64L14.59 3.08L21.81 3.08L21.81 3.08Q21.82 4.14 21.88 5.28L21.88 5.28L21.33 5.30L21.33 5.30Q21.31 4.66 21.26 4.25L21.26 4.25L21.26 4.25Q21.22 3.89 21.16 3.80L21.16 3.80L21.16 3.80Q21.11 3.71 20.99 3.69L20.99 3.69L20.99 3.69Q20.90 3.68 20.31 3.68L20.31 3.68L17.93 3.68L17.93 3.68Q17.38 3.68 17.24 3.77L17.24 3.77L17.24 3.77Q17.12 3.86 17.12 4.33L17.12 4.33L17.12 6.28L17.12 6.28Q17.12 6.69 17.17 6.76L17.17 6.76L17.17 6.76Q17.24 6.84 17.58 6.84L17.58 6.84L19.69 6.84L19.69 6.84Q20.06 6.84 20.14 6.73L20.14 6.73L20.14 6.73Q20.22 6.63 20.23 6.14L20.23 6.14L20.23 5.61L20.74 5.63L20.74 8.97L20.23 8.97L20.23 8.24L20.23 8.24Q20.23 7.66 20.15 7.57L20.15 7.57L20.15 7.57Q20.07 7.46 19.72 7.46L19.72 7.46L17.62 7.46L17.62 7.46Q17.29 7.46 17.20 7.54L17.20 7.54L17.20 7.54Q17.12 7.63 17.12 7.89L17.12 7.89L17.12 11.20L17.12 11.20Q17.12 11.57 17.20 11.67L17.20 11.67L17.20 11.67Q17.29 11.77 17.56 11.77L17.56 11.77L17.56 11.77Q20.48 11.75 21.01 11.69L21.01 11.69L21.01 11.69Q21.53 11.63 21.61 11.38L21.61 11.38L21.62 11.36L21.62 11.35L21.85 10.17L22.33 10.25L21.98 12.41L14.88 12.41L14.88 11.87L15.24 11.87L15.24 11.87Q15.80 11.87 15.89 11.80L15.89 11.80L15.89 11.80Q15.98 11.72 15.98 11.33L15.98 11.33L15.98 4.24L15.98 4.24Q15.98 3.82 15.83 3.73L15.83 3.73L15.83 3.73Q15.66 3.64 15.00 3.64L15.00 3.64L14.61 3.64ZM30.54 3.64L30.15 3.64L30.16 3.08L33.38 3.08L33.38 3.08Q34.51 3.08 35.12 3.21L35.12 3.21L35.12 3.21Q35.76 3.37 36.22 3.75L36.22 3.75L36.22 3.75Q37.23 4.57 37.23 5.71L37.23 5.71L37.23 5.71Q37.23 6.43 36.76 7.04L36.76 7.04L36.76 7.04Q36.26 7.66 35.23 7.92L35.23 7.92L37.92 11.49L37.92 11.49Q38.23 11.87 38.52 11.87L38.52 11.87L39.12 11.87L39.15 12.41L37.12 12.41L34.13 8.10L33.95 8.10L33.95 8.10Q33.91 8.10 33.86 8.11L33.86 8.11L33.86 8.11Q33.80 8.11 33.79 8.11L33.79 8.11L33.79 8.11Q32.91 8.11 32.51 8.03L32.51 8.03L32.51 11.46L32.51 11.46Q32.51 11.76 32.66 11.81L32.66 11.81L32.66 11.81Q32.78 11.87 33.48 11.87L33.48 11.87L34.19 11.87L34.17 12.41L30.44 12.41L30.44 11.87L30.76 11.87L30.76 11.87Q31.23 11.87 31.29 11.81L31.29 11.81L31.29 11.81Q31.38 11.74 31.38 11.46L31.38 11.46L31.38 4.14L31.38 4.14Q31.38 3.82 31.19 3.73L31.19 3.73L31.19 3.73Q30.96 3.64 30.54 3.64L30.54 3.64ZM32.51 4.28L32.51 7.57L32.51 7.57Q32.70 7.70 33.41 7.71L33.41 7.71L33.41 7.71Q34.68 7.71 35.26 7.27L35.26 7.27L35.26 7.27Q35.85 6.84 35.85 5.92L35.85 5.92L35.85 5.92Q35.85 4.92 35.08 4.27L35.08 4.27L35.08 4.27Q34.32 3.64 32.94 3.64L32.94 3.64L32.94 3.64Q32.68 3.64 32.60 3.75L32.60 3.75L32.60 3.75Q32.52 3.84 32.51 4.28L32.51 4.28ZM47.39 3.64L46.90 3.64L46.90 3.08L50.42 3.08L50.40 3.64L49.66 3.64L49.66 3.64Q49.33 3.64 49.33 3.82L49.33 3.82L49.33 3.82Q49.33 3.98 49.52 4.48L49.52 4.48L52.12 10.94L55.06 4.18L55.06 4.18Q55.13 3.97 55.14 3.92L55.14 3.92L55.14 3.92Q55.14 3.79 55.04 3.74L55.04 3.74L55.04 3.74Q54.94 3.68 54.80 3.65L54.80 3.65L54.80 3.65Q54.71 3.64 54.45 3.64L54.45 3.64L54.00 3.64L53.98 3.08L56.81 3.08L56.79 3.64L56.38 3.64L56.38 3.64Q56.06 3.64 55.90 3.83L55.90 3.83L55.90 3.83Q55.82 3.93 55.36 4.94L55.36 4.94L55.36 4.94Q55.15 5.46 55.08 5.57L55.08 5.57L51.95 12.63L51.71 12.63L48.46 4.73L48.46 4.73Q48.14 3.93 48.00 3.79L48.00 3.79L48.00 3.79Q47.84 3.63 47.39 3.64L47.39 3.64ZM64.57 3.64L64.55 3.08L71.76 3.08L71.76 3.08Q71.78 4.14 71.83 5.28L71.83 5.28L71.29 5.30L71.29 5.30Q71.27 4.66 71.22 4.25L71.22 4.25L71.22 4.25Q71.18 3.89 71.12 3.80L71.12 3.80L71.12 3.80Q71.07 3.71 70.95 3.69L70.95 3.69L70.95 3.69Q70.85 3.68 70.27 3.68L70.27 3.68L67.89 3.68L67.89 3.68Q67.34 3.68 67.20 3.77L67.20 3.77L67.20 3.77Q67.07 3.86 67.07 4.33L67.07 4.33L67.07 6.28L67.07 6.28Q67.07 6.69 67.13 6.76L67.13 6.76L67.13 6.76Q67.20 6.84 67.54 6.84L67.54 6.84L69.65 6.84L69.65 6.84Q70.01 6.84 70.10 6.73L70.10 6.73L70.10 6.73Q70.18 6.63 70.18 6.14L70.18 6.14L70.18 5.61L70.70 5.63L70.70 8.97L70.18 8.97L70.18 8.24L70.18 8.24Q70.18 7.66 70.11 7.57L70.11 7.57L70.11 7.57Q70.03 7.46 69.68 7.46L69.68 7.46L67.58 7.46L67.58 7.46Q67.25 7.46 67.16 7.54L67.16 7.54L67.16 7.54Q67.07 7.63 67.07 7.89L67.07 7.89L67.07 11.20L67.07 11.20Q67.07 11.57 67.16 11.67L67.16 11.67L67.16 11.67Q67.25 11.77 67.52 11.77L67.52 11.77L67.52 11.77Q70.44 11.75 70.96 11.69L70.96 11.69L70.96 11.69Q71.48 11.63 71.57 11.38L71.57 11.38L71.57 11.36L71.58 11.35L71.80 10.17L72.28 10.25L71.93 12.41L64.83 12.41L64.83 11.87L65.20 11.87L65.20 11.87Q65.76 11.87 65.84 11.80L65.84 11.80L65.84 11.80Q65.94 11.72 65.94 11.33L65.94 11.33L65.94 4.24L65.94 4.24Q65.94 3.82 65.79 3.73L65.79 3.73L65.79 3.73Q65.62 3.64 64.96 3.64L64.96 3.64L64.57 3.64ZM80.49 3.64L80.10 3.64L80.12 3.08L83.34 3.08L83.34 3.08Q84.47 3.08 85.07 3.21L85.07 3.21L85.07 3.21Q85.72 3.37 86.18 3.75L86.18 3.75L86.18 3.75Q87.19 4.57 87.19 5.71L87.19 5.71L87.19 5.71Q87.19 6.43 86.71 7.04L86.71 7.04L86.71 7.04Q86.22 7.66 85.19 7.92L85.19 7.92L87.88 11.49L87.88 11.49Q88.18 11.87 88.48 11.87L88.48 11.87L89.08 11.87L89.11 12.41L87.08 12.41L84.08 8.10L83.91 8.10L83.91 8.10Q83.87 8.10 83.82 8.11L83.82 8.11L83.82 8.11Q83.76 8.11 83.75 8.11L83.75 8.11L83.75 8.11Q82.87 8.11 82.47 8.03L82.47 8.03L82.47 11.46L82.47 11.46Q82.47 11.76 82.61 11.81L82.61 11.81L82.61 11.81Q82.74 11.87 83.44 11.87L83.44 11.87L84.15 11.87L84.12 12.41L80.40 12.41L80.40 11.87L80.72 11.87L80.72 11.87Q81.18 11.87 81.25 11.81L81.25 11.81L81.25 11.81Q81.33 11.74 81.33 11.46L81.33 11.46L81.33 4.14L81.33 4.14Q81.33 3.82 81.14 3.73L81.14 3.73L81.14 3.73Q80.92 3.64 80.49 3.64L80.49 3.64ZM82.47 4.28L82.47 7.57L82.47 7.57Q82.65 7.70 83.36 7.71L83.36 7.71L83.36 7.71Q84.64 7.71 85.22 7.27L85.22 7.27L85.22 7.27Q85.80 6.84 85.80 5.92L85.80 5.92L85.80 5.92Q85.80 4.92 85.03 4.27L85.03 4.27L85.03 4.27Q84.27 3.64 82.89 3.64L82.89 3.64L82.89 3.64Q82.64 3.64 82.56 3.75L82.56 3.75L82.56 3.75Q82.48 3.84 82.47 4.28L82.47 4.28ZM109.59 12.41L106.57 12.41L106.57 11.87L106.71 11.87L106.71 11.87Q107.30 11.87 107.41 11.77L107.41 11.77L107.41 11.77Q107.54 11.68 107.55 11.21L107.55 11.21L107.68 4.38L107.68 4.38Q107.68 4.35 107.69 4.28L107.69 4.28L107.69 4.28Q107.69 4.21 107.69 4.17L107.69 4.17L107.69 4.01L107.69 4.01Q107.69 3.76 107.62 3.71L107.62 3.71L107.62 3.71Q107.52 3.64 107.30 3.64L107.30 3.64L106.59 3.64L106.57 3.08L108.68 3.08L111.88 10.55L115.01 3.08L117.25 3.08L117.25 3.64L116.78 3.64L116.78 3.64Q116.33 3.64 116.20 3.71L116.20 3.71L116.20 3.71Q116.05 3.79 116.05 4.08L116.05 4.08L116.05 11.22L116.05 11.22Q116.05 11.68 116.16 11.77L116.16 11.77L116.16 11.77Q116.27 11.87 116.90 11.87L116.90 11.87L117.18 11.87L117.20 12.41L113.80 12.41L113.78 11.87L114.06 11.87L114.06 11.87Q114.67 11.87 114.79 11.77L114.79 11.77L114.79 11.77Q114.91 11.66 114.91 11.25L114.91 11.25L114.91 4.83L112.76 9.91L111.90 12.02L111.90 12.02Q111.77 12.37 111.72 12.44L111.72 12.44L111.72 12.44Q111.68 12.51 111.61 12.51L111.61 12.51L111.61 12.51Q111.51 12.51 111.06 11.52L111.06 11.52L108.25 5.01L108.19 11.39L108.19 11.39Q108.19 11.74 108.39 11.80L108.39 11.80L108.39 11.80Q108.63 11.87 109.59 11.87L109.59 11.87L109.59 12.41ZM124.93 12.41L124.92 11.87L125.09 11.87L125.09 11.87Q125.48 11.87 125.61 11.73L125.61 11.73L125.61 11.73Q125.73 11.57 126.07 10.83L126.07 10.83L126.98 8.82L127.55 7.53L127.55 7.53Q127.82 6.97 127.86 6.86L127.86 6.86L127.86 6.86Q127.93 6.70 127.98 6.60L127.98 6.60L127.98 6.60Q128.03 6.51 128.04 6.45L128.04 6.45L128.14 6.21L129.57 2.74L129.86 2.74L129.86 2.74Q130.72 4.98 132.90 10.25L132.90 10.25L132.90 10.25Q133.36 11.34 133.55 11.64L133.55 11.64L133.55 11.64Q133.68 11.87 134.12 11.87L134.12 11.87L134.33 11.87L134.32 12.41L131.13 12.41L131.14 11.87L131.56 11.87L131.56 11.87Q132.17 11.87 132.17 11.70L132.17 11.70L132.17 11.70Q132.17 11.63 132.04 11.27L132.04 11.27L131.00 8.72L127.75 8.72L126.64 11.18L126.64 11.18Q126.51 11.50 126.51 11.63L126.51 11.63L126.51 11.63Q126.51 11.79 126.60 11.83L126.60 11.83L126.60 11.83Q126.70 11.87 127.08 11.87L127.08 11.87L127.65 11.87L127.65 12.41L124.93 12.41ZM129.43 4.79L128.02 8.10L130.76 8.10L129.43 4.79ZM142.08 3.64L142.06 3.08L144.24 3.08L149.97 10.48L149.97 4.14L149.97 4.14Q149.97 3.81 149.82 3.72L149.82 3.72L149.82 3.72Q149.67 3.64 149.21 3.64L149.21 3.64L148.72 3.64L148.74 3.08L151.72 3.08L151.72 3.64L151.40 3.64L151.40 3.64Q150.94 3.64 150.79 3.75L150.79 3.75L150.79 3.75Q150.64 3.86 150.64 4.25L150.64 4.25L150.64 12.32L150.64 12.47L150.64 12.47Q150.64 12.52 150.62 12.57L150.62 12.57L150.62 12.57Q150.61 12.61 150.58 12.64L150.58 12.64L150.58 12.64Q150.56 12.65 150.51 12.65L150.51 12.65L150.32 12.65L150.25 12.65L150.23 12.65L150.20 12.64L150.20 12.64Q150.17 12.64 150.16 12.63L150.16 12.63L150.16 12.63Q150.14 12.61 150.14 12.60L150.14 12.60L150.14 12.60Q150.14 12.58 150.13 12.57L150.13 12.57L150.13 12.57Q150.10 12.54 150.08 12.50L150.08 12.50L150.08 12.50Q150.06 12.48 150.04 12.45L150.04 12.45L150.04 12.45Q150.02 12.41 150.01 12.40L150.01 12.40L143.90 4.56L143.97 11.22L143.97 11.22Q143.97 11.67 144.14 11.77L144.14 11.77L144.14 11.77Q144.29 11.87 145.00 11.87L145.00 11.87L145.24 11.87L145.24 12.41L142.30 12.41L142.30 11.87L142.73 11.87L142.73 11.87Q143.10 11.87 143.21 11.76L143.21 11.76L143.21 11.76Q143.31 11.66 143.32 11.25L143.32 11.25L143.32 3.80L143.17 3.64L142.08 3.64ZM159.48 12.41L159.46 11.87L159.63 11.87L159.63 11.87Q160.02 11.87 160.15 11.73L160.15 11.73L160.15 11.73Q160.28 11.57 160.61 10.83L160.61 10.83L161.52 8.82L162.09 7.53L162.09 7.53Q162.36 6.97 162.40 6.86L162.40 6.86L162.40 6.86Q162.47 6.70 162.52 6.60L162.52 6.60L162.52 6.60Q162.57 6.51 162.59 6.45L162.59 6.45L162.68 6.21L164.11 2.74L164.40 2.74L164.40 2.74Q165.26 4.98 167.45 10.25L167.45 10.25L167.45 10.25Q167.90 11.34 168.09 11.64L168.09 11.64L168.09 11.64Q168.23 11.87 168.66 11.87L168.66 11.87L168.88 11.87L168.86 12.41L165.67 12.41L165.68 11.87L166.10 11.87L166.10 11.87Q166.71 11.87 166.71 11.70L166.71 11.70L166.71 11.70Q166.71 11.63 166.58 11.27L166.58 11.27L165.54 8.72L162.29 8.72L161.18 11.18L161.18 11.18Q161.05 11.50 161.05 11.63L161.05 11.63L161.05 11.63Q161.05 11.79 161.14 11.83L161.14 11.83L161.14 11.83Q161.24 11.87 161.62 11.87L161.62 11.87L162.20 11.87L162.20 12.41L159.48 12.41ZM163.97 4.79L162.56 8.10L165.30 8.10L163.97 4.79ZM176.99 8.24L176.99 8.24L176.99 8.24Q176.99 6.92 177.60 5.72L177.60 5.72L177.60 5.72Q178.22 4.52 179.45 3.72L179.45 3.72L179.45 3.72Q180.69 2.92 182.31 2.92L182.31 2.92L182.31 2.92Q183.58 2.92 185.17 3.57L185.17 3.57L185.17 2.86L185.73 2.86L185.82 5.92L185.27 5.93L185.18 4.48L185.18 4.48Q185.10 4.41 184.82 4.24L184.82 4.24L184.82 4.24Q184.57 4.07 183.82 3.83L183.82 3.83L183.82 3.83Q183.09 3.60 182.19 3.60L182.19 3.60L182.19 3.60Q181.21 3.60 180.44 3.93L180.44 3.93L180.44 3.93Q179.68 4.27 179.21 4.83L179.21 4.83L179.21 4.83Q178.75 5.39 178.50 6.08L178.50 6.08L178.50 6.08Q178.25 6.78 178.25 7.57L178.25 7.57L178.25 7.57Q178.25 9.33 179.37 10.69L179.37 10.69L179.37 10.69Q180.49 12.05 182.35 12.05L182.35 12.05L182.35 12.05Q183.05 12.05 183.68 11.85L183.68 11.85L183.68 11.85Q184.31 11.66 184.53 11.48L184.53 11.48L184.77 11.28L184.77 8.78L183.11 8.78L183.09 8.23L186.96 8.23L186.97 8.78L185.90 8.78L185.90 11.64L185.12 11.98L185.12 11.98Q184.42 12.30 184.19 12.39L184.19 12.39L184.19 12.39Q183.94 12.48 183.30 12.61L183.30 12.61L183.30 12.61Q182.69 12.74 182.08 12.74L182.08 12.74L182.08 12.74Q180.78 12.74 179.81 12.37L179.81 12.37L179.81 12.37Q178.82 12.00 178.21 11.36L178.21 11.36L178.21 11.36Q177.62 10.76 177.30 9.94L177.30 9.94L177.30 9.94Q176.99 9.15 176.99 8.24ZM194.72 3.64L194.71 3.08L201.92 3.08L201.92 3.08Q201.93 4.14 201.99 5.28L201.99 5.28L201.44 5.30L201.44 5.30Q201.43 4.66 201.37 4.25L201.37 4.25L201.37 4.25Q201.33 3.89 201.28 3.80L201.28 3.80L201.28 3.80Q201.22 3.71 201.11 3.69L201.11 3.69L201.11 3.69Q201.01 3.68 200.42 3.68L200.42 3.68L198.04 3.68L198.04 3.68Q197.50 3.68 197.35 3.77L197.35 3.77L197.35 3.77Q197.23 3.86 197.23 4.33L197.23 4.33L197.23 6.28L197.23 6.28Q197.23 6.69 197.29 6.76L197.29 6.76L197.29 6.76Q197.35 6.84 197.70 6.84L197.70 6.84L199.81 6.84L199.81 6.84Q200.17 6.84 200.25 6.73L200.25 6.73L200.25 6.73Q200.33 6.63 200.34 6.14L200.34 6.14L200.34 5.61L200.85 5.63L200.85 8.97L200.34 8.97L200.34 8.24L200.34 8.24Q200.34 7.66 200.27 7.57L200.27 7.57L200.27 7.57Q200.18 7.46 199.83 7.46L199.83 7.46L197.74 7.46L197.74 7.46Q197.40 7.46 197.32 7.54L197.32 7.54L197.32 7.54Q197.23 7.63 197.23 7.89L197.23 7.89L197.23 11.20L197.23 11.20Q197.23 11.57 197.32 11.67L197.32 11.67L197.32 11.67Q197.40 11.77 197.67 11.77L197.67 11.77L197.67 11.77Q200.59 11.75 201.12 11.69L201.12 11.69L201.12 11.69Q201.64 11.63 201.72 11.38L201.72 11.38L201.73 11.36L201.74 11.35L201.96 10.17L202.44 10.25L202.09 12.41L194.99 12.41L194.99 11.87L195.36 11.87L195.36 11.87Q195.92 11.87 196 11.80L196 11.80L196 11.80Q196.10 11.72 196.10 11.33L196.10 11.33L196.10 4.24L196.10 4.24Q196.10 3.82 195.95 3.73L195.95 3.73L195.95 3.73Q195.77 3.64 195.12 3.64L195.12 3.64L194.72 3.64ZM213.48 12.41L210.46 12.41L210.46 11.87L210.59 11.87L210.59 11.87Q211.18 11.87 211.30 11.77L211.30 11.77L211.30 11.77Q211.42 11.68 211.44 11.21L211.44 11.21L211.57 4.38L211.57 4.38Q211.57 4.35 211.57 4.28L211.57 4.28L211.57 4.28Q211.58 4.21 211.58 4.17L211.58 4.17L211.58 4.01L211.58 4.01Q211.58 3.76 211.50 3.71L211.50 3.71L211.50 3.71Q211.41 3.64 211.18 3.64L211.18 3.64L210.47 3.64L210.46 3.08L212.57 3.08L215.76 10.55L218.90 3.08L221.14 3.08L221.14 3.64L220.66 3.64L220.66 3.64Q220.21 3.64 220.09 3.71L220.09 3.71L220.09 3.71Q219.93 3.79 219.93 4.08L219.93 4.08L219.93 11.22L219.93 11.22Q219.93 11.68 220.05 11.77L220.05 11.77L220.05 11.77Q220.16 11.87 220.79 11.87L220.79 11.87L221.07 11.87L221.08 12.41L217.68 12.41L217.66 11.87L217.94 11.87L217.94 11.87Q218.56 11.87 218.67 11.77L218.67 11.77L218.67 11.77Q218.80 11.66 218.80 11.25L218.80 11.25L218.80 4.83L216.64 9.91L215.79 12.02L215.79 12.02Q215.65 12.37 215.61 12.44L215.61 12.44L215.61 12.44Q215.56 12.51 215.50 12.51L215.50 12.51L215.50 12.51Q215.40 12.51 214.95 11.52L214.95 11.52L212.14 5.01L212.08 11.39L212.08 11.39Q212.08 11.74 212.28 11.80L212.28 11.80L212.28 11.80Q212.52 11.87 213.48 11.87L213.48 11.87L213.48 12.41ZM228.82 3.64L228.81 3.08L236.02 3.08L236.02 3.08Q236.03 4.14 236.09 5.28L236.09 5.28L235.54 5.30L235.54 5.30Q235.53 4.66 235.47 4.25L235.47 4.25L235.47 4.25Q235.43 3.89 235.38 3.80L235.38 3.80L235.38 3.80Q235.32 3.71 235.20 3.69L235.20 3.69L235.20 3.69Q235.11 3.68 234.52 3.68L234.52 3.68L232.14 3.68L232.14 3.68Q231.59 3.68 231.45 3.77L231.45 3.77L231.45 3.77Q231.33 3.86 231.33 4.33L231.33 4.33L231.33 6.28L231.33 6.28Q231.33 6.69 231.38 6.76L231.38 6.76L231.38 6.76Q231.45 6.84 231.79 6.84L231.79 6.84L233.91 6.84L233.91 6.84Q234.27 6.84 234.35 6.73L234.35 6.73L234.35 6.73Q234.43 6.63 234.44 6.14L234.44 6.14L234.44 5.61L234.95 5.63L234.95 8.97L234.44 8.97L234.44 8.24L234.44 8.24Q234.44 7.66 234.36 7.57L234.36 7.57L234.36 7.57Q234.28 7.46 233.93 7.46L233.93 7.46L231.83 7.46L231.83 7.46Q231.50 7.46 231.41 7.54L231.41 7.54L231.41 7.54Q231.33 7.63 231.33 7.89L231.33 7.89L231.33 11.20L231.33 11.20Q231.33 11.57 231.41 11.67L231.41 11.67L231.41 11.67Q231.50 11.77 231.77 11.77L231.77 11.77L231.77 11.77Q234.69 11.75 235.22 11.69L235.22 11.69L235.22 11.69Q235.74 11.63 235.82 11.38L235.82 11.38L235.83 11.36L235.83 11.35L236.06 10.17L236.54 10.25L236.19 12.41L229.09 12.41L229.09 11.87L229.46 11.87L229.46 11.87Q230.02 11.87 230.10 11.80L230.10 11.80L230.10 11.80Q230.19 11.72 230.19 11.33L230.19 11.33L230.19 4.24L230.19 4.24Q230.19 3.82 230.04 3.73L230.04 3.73L230.04 3.73Q229.87 3.64 229.22 3.64L229.22 3.64L228.82 3.64ZM244.43 3.64L244.41 3.08L246.59 3.08L252.32 10.48L252.32 4.14L252.32 4.14Q252.32 3.81 252.17 3.72L252.17 3.72L252.17 3.72Q252.01 3.64 251.56 3.64L251.56 3.64L251.06 3.64L251.09 3.08L254.07 3.08L254.07 3.64L253.75 3.64L253.75 3.64Q253.29 3.64 253.13 3.75L253.13 3.75L253.13 3.75Q252.98 3.86 252.98 4.25L252.98 4.25L252.98 12.32L252.98 12.47L252.98 12.47Q252.98 12.52 252.97 12.57L252.97 12.57L252.97 12.57Q252.96 12.61 252.92 12.64L252.92 12.64L252.92 12.64Q252.91 12.65 252.85 12.65L252.85 12.65L252.66 12.65L252.60 12.65L252.57 12.65L252.55 12.64L252.55 12.64Q252.52 12.64 252.51 12.63L252.51 12.63L252.51 12.63Q252.49 12.61 252.49 12.60L252.49 12.60L252.49 12.60Q252.49 12.58 252.48 12.57L252.48 12.57L252.48 12.57Q252.45 12.54 252.42 12.50L252.42 12.50L252.42 12.50Q252.41 12.48 252.39 12.45L252.39 12.45L252.39 12.45Q252.37 12.41 252.36 12.40L252.36 12.40L246.25 4.56L246.32 11.22L246.32 11.22Q246.32 11.67 246.48 11.77L246.48 11.77L246.48 11.77Q246.64 11.87 247.35 11.87L247.35 11.87L247.59 11.87L247.59 12.41L244.65 12.41L244.65 11.87L245.08 11.87L245.08 11.87Q245.45 11.87 245.56 11.76L245.56 11.76L245.56 11.76Q245.66 11.66 245.66 11.25L245.66 11.25L245.66 3.80L245.52 3.64L244.43 3.64ZM262.09 5.35L261.59 5.33L261.59 5.33Q261.71 4.17 261.80 3.08L261.80 3.08L269.88 3.08L269.88 3.08Q269.79 4.13 269.77 4.53L269.77 4.53L269.77 4.53Q269.73 5.26 269.71 5.32L269.71 5.32L269.21 5.30L269.21 5.30Q269.29 4.34 269.29 4.16L269.29 4.16L269.29 4.16Q269.29 3.88 269.14 3.79L269.14 3.79L269.14 3.79Q268.97 3.69 268.57 3.69L268.57 3.69L266.96 3.69L266.96 3.69Q266.46 3.69 266.33 3.79L266.33 3.79L266.33 3.79Q266.24 3.87 266.23 4.36L266.23 4.36L266.23 11.22L266.23 11.22Q266.23 11.66 266.38 11.76L266.38 11.76L266.38 11.76Q266.53 11.87 267.05 11.87L267.05 11.87L267.61 11.87L267.62 12.41L263.93 12.40L263.93 11.87L264.15 11.87L264.15 11.87Q264.82 11.87 264.96 11.79L264.96 11.79L264.96 11.79Q265.10 11.70 265.10 11.28L265.10 11.28L265.10 4.48L265.10 4.48Q265.10 3.92 265.01 3.80L265.01 3.80L265.01 3.80Q264.91 3.69 264.48 3.69L264.48 3.69L263.01 3.69L263.01 3.69Q262.83 3.69 262.76 3.71L262.76 3.71L262.76 3.71Q262.69 3.72 262.58 3.72L262.58 3.72L262.58 3.72Q262.55 3.72 262.44 3.79L262.44 3.79L262.44 3.79Q262.36 3.84 262.33 3.86L262.33 3.86L262.33 3.86Q262.30 3.88 262.26 3.99L262.26 3.99L262.26 3.99Q262.23 4.05 262.21 4.14L262.21 4.14L262.21 4.14Q262.18 4.21 262.16 4.36L262.16 4.36L262.16 4.36Q262.13 4.59 262.13 4.61L262.13 4.61L262.13 4.61Q262.13 4.80 262.12 4.95L262.12 4.95L262.12 4.95Q262.12 5.02 262.11 5.15L262.11 5.15L262.11 5.15Q262.10 5.29 262.09 5.35L262.09 5.35ZM287.57 7.83L287.57 7.83L287.57 7.83Q287.57 6.62 287.97 5.68L287.97 5.68L287.97 5.68Q288.39 4.72 289.08 4.12L289.08 4.12L289.08 4.12Q289.77 3.51 290.63 3.19L290.63 3.19L290.63 3.19Q291.47 2.88 292.42 2.88L292.42 2.88L292.42 2.88Q293.68 2.88 294.73 3.40L294.73 3.40L294.73 3.40Q295.81 3.93 296.52 5.07L296.52 5.07L296.52 5.07Q297.22 6.17 297.23 7.75L297.23 7.75L297.23 7.75Q297.23 8.70 296.92 9.54L296.92 9.54L296.92 9.54Q296.61 10.38 296.01 11.10L296.01 11.10L296.01 11.10Q295.40 11.81 294.46 12.22L294.46 12.22L294.46 12.22Q293.50 12.63 292.31 12.64L292.31 12.64L292.31 12.64Q291.18 12.64 290.24 12.23L290.24 12.23L290.24 12.23Q289.30 11.83 288.74 11.14L288.74 11.14L288.74 11.14Q288.17 10.45 287.88 9.60L287.88 9.60L287.88 9.60Q287.57 8.72 287.57 7.83ZM288.83 7.38L288.83 7.38L288.83 7.38Q288.83 8.52 289.26 9.60L289.26 9.60L289.26 9.60Q289.66 10.64 290.59 11.33L290.59 11.33L290.59 11.33Q291.50 12.03 292.69 12.04L292.69 12.04L292.69 12.04Q294.06 12.04 295.00 11.01L295.00 11.01L295.00 11.01Q295.95 9.97 295.95 8.10L295.95 8.10L295.95 8.10Q295.95 5.99 294.79 4.72L294.79 4.72L294.79 4.72Q293.64 3.46 292.13 3.45L292.13 3.45L292.13 3.45Q291.61 3.45 291.06 3.65L291.06 3.65L291.06 3.65Q290.52 3.85 290.01 4.25L290.01 4.25L290.01 4.25Q289.47 4.68 289.15 5.48L289.15 5.48L289.15 5.48Q288.83 6.27 288.83 7.38ZM305.35 3.64L305.34 3.08L307.51 3.08L313.25 10.48L313.25 4.14L313.25 4.14Q313.25 3.81 313.10 3.72L313.10 3.72L313.10 3.72Q312.94 3.64 312.48 3.64L312.48 3.64L311.99 3.64L312.02 3.08L315 3.08L315 3.64L314.68 3.64L314.68 3.64Q314.21 3.64 314.06 3.75L314.06 3.75L314.06 3.75Q313.91 3.86 313.91 4.25L313.91 4.25L313.91 12.32L313.91 12.47L313.91 12.47Q313.91 12.52 313.90 12.57L313.90 12.57L313.90 12.57Q313.89 12.61 313.85 12.64L313.85 12.64L313.85 12.64Q313.84 12.65 313.78 12.65L313.78 12.65L313.59 12.65L313.53 12.65L313.50 12.65L313.48 12.64L313.48 12.64Q313.45 12.64 313.43 12.63L313.43 12.63L313.43 12.63Q313.42 12.61 313.42 12.60L313.42 12.60L313.42 12.60Q313.42 12.58 313.41 12.57L313.41 12.57L313.41 12.57Q313.38 12.54 313.35 12.50L313.35 12.50L313.35 12.50Q313.34 12.48 313.32 12.45L313.32 12.45L313.32 12.45Q313.30 12.41 313.28 12.40L313.28 12.40L307.18 4.56L307.25 11.22L307.25 11.22Q307.25 11.67 307.41 11.77L307.41 11.77L307.41 11.77Q307.57 11.87 308.28 11.87L308.28 11.87L308.52 11.87L308.52 12.41L305.58 12.41L305.58 11.87L306.00 11.87L306.00 11.87Q306.38 11.87 306.49 11.76L306.49 11.76L306.49 11.76Q306.58 11.66 306.59 11.25L306.59 11.25L306.59 3.80L306.45 3.64L305.35 3.64ZM332.32 3.64L332.31 3.08L339.49 3.08L339.49 3.08Q339.51 4.14 339.56 5.28L339.56 5.28L339.01 5.30L339.01 5.30Q339.00 4.66 338.95 4.25L338.95 4.25L338.95 4.25Q338.91 3.89 338.85 3.80L338.85 3.80L338.85 3.80Q338.80 3.71 338.68 3.69L338.68 3.69L338.68 3.69Q338.58 3.68 338.00 3.68L338.00 3.68L335.62 3.68L335.62 3.68Q335.07 3.68 334.93 3.77L334.93 3.77L334.93 3.77Q334.80 3.86 334.80 4.33L334.80 4.33L334.80 6.28L334.80 6.28Q334.80 6.69 334.86 6.76L334.86 6.76L334.86 6.76Q334.93 6.84 335.26 6.84L335.26 6.84L337.38 6.84L337.38 6.84Q337.74 6.84 337.83 6.74L337.83 6.74L337.83 6.74Q337.91 6.64 337.91 6.17L337.91 6.17L337.91 5.63L338.43 5.63L338.43 8.97L337.91 8.97L337.91 8.26L337.91 8.26Q337.91 7.68 337.83 7.57L337.83 7.57L337.83 7.57Q337.74 7.46 337.41 7.46L337.41 7.46L335.31 7.46L335.31 7.46Q334.97 7.46 334.89 7.54L334.89 7.54L334.89 7.54Q334.80 7.63 334.80 7.89L334.80 7.89L334.80 11.20L334.80 11.20Q334.80 11.60 334.87 11.73L334.87 11.73L334.87 11.73Q334.95 11.87 335.22 11.87L335.22 11.87L336.16 11.87L336.16 12.41L332.56 12.41L332.56 11.87L332.97 11.87L332.97 11.87Q333.48 11.87 333.57 11.79L333.57 11.79L333.57 11.79Q333.67 11.70 333.67 11.33L333.67 11.33L333.67 4.24L333.67 4.24Q333.67 3.79 333.50 3.71L333.50 3.71L333.50 3.71Q333.36 3.64 332.32 3.64L332.32 3.64ZM348.20 3.64L347.61 3.64L347.62 3.08L351.13 3.08L351.13 3.64L350.90 3.64L350.90 3.64Q350.36 3.64 350.18 3.73L350.18 3.73L350.18 3.73Q350.05 3.81 350.05 4.28L350.05 4.28L350.05 11.22L350.05 11.22Q350.05 11.68 350.16 11.77L350.16 11.77L350.16 11.77Q350.27 11.87 350.80 11.87L350.80 11.87L351.35 11.87L351.36 12.41L347.78 12.41L347.76 11.87L348.13 11.87L348.13 11.87Q348.69 11.87 348.80 11.77L348.80 11.77L348.80 11.77Q348.91 11.67 348.91 11.25L348.91 11.25L348.91 4.14L348.91 4.14Q348.91 3.77 348.81 3.71L348.81 3.71L348.81 3.71Q348.70 3.64 348.20 3.64L348.20 3.64ZM359.11 3.64L359.10 3.08L361.27 3.08L367.01 10.48L367.01 4.14L367.01 4.14Q367.01 3.81 366.85 3.72L366.85 3.72L366.85 3.72Q366.70 3.64 366.24 3.64L366.24 3.64L365.75 3.64L365.78 3.08L368.76 3.08L368.76 3.64L368.44 3.64L368.44 3.64Q367.97 3.64 367.82 3.75L367.82 3.75L367.82 3.75Q367.67 3.86 367.67 4.25L367.67 4.25L367.67 12.32L367.67 12.47L367.67 12.47Q367.67 12.52 367.66 12.57L367.66 12.57L367.66 12.57Q367.64 12.61 367.61 12.64L367.61 12.64L367.61 12.64Q367.60 12.65 367.54 12.65L367.54 12.65L367.35 12.65L367.29 12.65L367.26 12.65L367.23 12.64L367.23 12.64Q367.21 12.64 367.19 12.63L367.19 12.63L367.19 12.63Q367.18 12.61 367.18 12.60L367.18 12.60L367.18 12.60Q367.18 12.58 367.17 12.57L367.17 12.57L367.17 12.57Q367.14 12.54 367.11 12.50L367.11 12.50L367.11 12.50Q367.10 12.48 367.08 12.45L367.08 12.45L367.08 12.45Q367.06 12.41 367.04 12.40L367.04 12.40L360.94 4.56L361.01 11.22L361.01 11.22Q361.01 11.67 361.17 11.77L361.17 11.77L361.17 11.77Q361.33 11.87 362.04 11.87L362.04 11.87L362.28 11.87L362.28 12.41L359.34 12.41L359.34 11.87L359.76 11.87L359.76 11.87Q360.14 11.87 360.25 11.76L360.25 11.76L360.25 11.76Q360.34 11.66 360.35 11.25L360.35 11.25L360.35 3.80L360.21 3.64L359.11 3.64ZM376.88 8.24L376.88 8.24L376.88 8.24Q376.88 6.92 377.49 5.72L377.49 5.72L377.49 5.72Q378.11 4.52 379.34 3.72L379.34 3.72L379.34 3.72Q380.58 2.92 382.20 2.92L382.20 2.92L382.20 2.92Q383.47 2.92 385.05 3.57L385.05 3.57L385.05 2.86L385.62 2.86L385.71 5.92L385.16 5.93L385.07 4.48L385.07 4.48Q384.99 4.41 384.71 4.24L384.71 4.24L384.71 4.24Q384.46 4.07 383.71 3.83L383.71 3.83L383.71 3.83Q382.98 3.60 382.08 3.60L382.08 3.60L382.08 3.60Q381.10 3.60 380.33 3.93L380.33 3.93L380.33 3.93Q379.57 4.27 379.10 4.83L379.10 4.83L379.10 4.83Q378.64 5.39 378.39 6.08L378.39 6.08L378.39 6.08Q378.14 6.78 378.14 7.57L378.14 7.57L378.14 7.57Q378.14 9.33 379.26 10.69L379.26 10.69L379.26 10.69Q380.38 12.05 382.24 12.05L382.24 12.05L382.24 12.05Q382.94 12.05 383.57 11.85L383.57 11.85L383.57 11.85Q384.20 11.66 384.42 11.48L384.42 11.48L384.66 11.28L384.66 8.78L383.00 8.78L382.98 8.23L386.85 8.23L386.86 8.78L385.79 8.78L385.79 11.64L385.01 11.98L385.01 11.98Q384.31 12.30 384.08 12.39L384.08 12.39L384.08 12.39Q383.83 12.48 383.19 12.61L383.19 12.61L383.19 12.61Q382.58 12.74 381.97 12.74L381.97 12.74L381.97 12.74Q380.67 12.74 379.70 12.37L379.70 12.37L379.70 12.37Q378.71 12.00 378.10 11.36L378.10 11.36L378.10 11.36Q377.51 10.76 377.19 9.94L377.19 9.94L377.19 9.94Q376.88 9.15 376.88 8.24ZM394.61 3.64L394.60 3.08L401.81 3.08L401.81 3.08Q401.82 4.14 401.88 5.28L401.88 5.28L401.33 5.30L401.33 5.30Q401.32 4.66 401.26 4.25L401.26 4.25L401.26 4.25Q401.22 3.89 401.17 3.80L401.17 3.80L401.17 3.80Q401.11 3.71 401.00 3.69L401.00 3.69L401.00 3.69Q400.90 3.68 400.31 3.68L400.31 3.68L397.93 3.68L397.93 3.68Q397.39 3.68 397.24 3.77L397.24 3.77L397.24 3.77Q397.12 3.86 397.12 4.33L397.12 4.33L397.12 6.28L397.12 6.28Q397.12 6.69 397.17 6.76L397.17 6.76L397.17 6.76Q397.24 6.84 397.58 6.84L397.58 6.84L399.70 6.84L399.70 6.84Q400.06 6.84 400.14 6.73L400.14 6.73L400.14 6.73Q400.22 6.63 400.23 6.14L400.23 6.14L400.23 5.61L400.74 5.63L400.74 8.97L400.23 8.97L400.23 8.24L400.23 8.24Q400.23 7.66 400.16 7.57L400.16 7.57L400.16 7.57Q400.07 7.46 399.72 7.46L399.72 7.46L397.63 7.46L397.63 7.46Q397.29 7.46 397.21 7.54L397.21 7.54L397.21 7.54Q397.12 7.63 397.12 7.89L397.12 7.89L397.12 11.20L397.12 11.20Q397.12 11.57 397.21 11.67L397.21 11.67L397.21 11.67Q397.29 11.77 397.56 11.77L397.56 11.77L397.56 11.77Q400.48 11.75 401.01 11.69L401.01 11.69L401.01 11.69Q401.53 11.63 401.61 11.38L401.61 11.38L401.62 11.36L401.63 11.35L401.85 10.17L402.33 10.25L401.98 12.41L394.88 12.41L394.88 11.87L395.25 11.87L395.25 11.87Q395.81 11.87 395.89 11.80L395.89 11.80L395.89 11.80Q395.99 11.72 395.99 11.33L395.99 11.33L395.99 4.24L395.99 4.24Q395.99 3.82 395.83 3.73L395.83 3.73L395.83 3.73Q395.66 3.64 395.01 3.64L395.01 3.64L394.61 3.64ZM410.54 3.64L410.15 3.64L410.16 3.08L413.38 3.08L413.38 3.08Q414.52 3.08 415.12 3.21L415.12 3.21L415.12 3.21Q415.76 3.37 416.23 3.75L416.23 3.75L416.23 3.75Q417.23 4.57 417.23 5.71L417.23 5.71L417.23 5.71Q417.23 6.43 416.76 7.04L416.76 7.04L416.76 7.04Q416.27 7.66 415.24 7.92L415.24 7.92L417.92 11.49L417.92 11.49Q418.23 11.87 418.52 11.87L418.52 11.87L419.13 11.87L419.15 12.41L417.12 12.41L414.13 8.10L413.96 8.10L413.96 8.10Q413.92 8.10 413.86 8.11L413.86 8.11L413.86 8.11Q413.81 8.11 413.79 8.11L413.79 8.11L413.79 8.11Q412.91 8.11 412.51 8.03L412.51 8.03L412.51 11.46L412.51 11.46Q412.51 11.76 412.66 11.81L412.66 11.81L412.66 11.81Q412.78 11.87 413.49 11.87L413.49 11.87L414.20 11.87L414.17 12.41L410.44 12.41L410.44 11.87L410.76 11.87L410.76 11.87Q411.23 11.87 411.30 11.81L411.30 11.81L411.30 11.81Q411.38 11.74 411.38 11.46L411.38 11.46L411.38 4.14L411.38 4.14Q411.38 3.82 411.19 3.73L411.19 3.73L411.19 3.73Q410.96 3.64 410.54 3.64L410.54 3.64ZM412.51 4.28L412.51 7.57L412.51 7.57Q412.70 7.70 413.41 7.71L413.41 7.71L413.41 7.71Q414.68 7.71 415.26 7.27L415.26 7.27L415.26 7.27Q415.85 6.84 415.85 5.92L415.85 5.92L415.85 5.92Q415.85 4.92 415.08 4.27L415.08 4.27L415.08 4.27Q414.32 3.64 412.94 3.64L412.94 3.64L412.94 3.64Q412.69 3.64 412.60 3.75L412.60 3.75L412.60 3.75Q412.52 3.84 412.51 4.28L412.51 4.28ZM427.18 5.35L426.69 5.33L426.69 5.33Q426.81 4.17 426.89 3.08L426.89 3.08L434.97 3.08L434.97 3.08Q434.89 4.13 434.86 4.53L434.86 4.53L434.86 4.53Q434.82 5.26 434.80 5.32L434.80 5.32L434.30 5.30L434.30 5.30Q434.38 4.34 434.38 4.16L434.38 4.16L434.38 4.16Q434.38 3.88 434.24 3.79L434.24 3.79L434.24 3.79Q434.07 3.69 433.67 3.69L433.67 3.69L432.06 3.69L432.06 3.69Q431.55 3.69 431.43 3.79L431.43 3.79L431.43 3.79Q431.33 3.87 431.33 4.36L431.33 4.36L431.33 11.22L431.33 11.22Q431.33 11.66 431.47 11.76L431.47 11.76L431.47 11.76Q431.63 11.87 432.14 11.87L432.14 11.87L432.70 11.87L432.71 12.41L429.02 12.40L429.02 11.87L429.24 11.87L429.24 11.87Q429.91 11.87 430.06 11.79L430.06 11.79L430.06 11.79Q430.20 11.70 430.20 11.28L430.20 11.28L430.20 4.48L430.20 4.48Q430.20 3.92 430.10 3.80L430.10 3.80L430.10 3.80Q430.00 3.69 429.58 3.69L429.58 3.69L428.11 3.69L428.11 3.69Q427.92 3.69 427.85 3.71L427.85 3.71L427.85 3.71Q427.79 3.72 427.68 3.72L427.68 3.72L427.68 3.72Q427.65 3.72 427.53 3.79L427.53 3.79L427.53 3.79Q427.45 3.84 427.42 3.86L427.42 3.86L427.42 3.86Q427.40 3.88 427.36 3.99L427.36 3.99L427.36 3.99Q427.33 4.05 427.30 4.14L427.30 4.14L427.30 4.14Q427.27 4.21 427.25 4.36L427.25 4.36L427.25 4.36Q427.23 4.59 427.23 4.61L427.23 4.61L427.23 4.61Q427.23 4.80 427.21 4.95L427.21 4.95L427.21 4.95Q427.21 5.02 427.21 5.15L427.21 5.15L427.21 5.15Q427.20 5.29 427.18 5.35L427.18 5.35ZM443.30 3.64L442.71 3.64L442.72 3.08L446.24 3.08L446.24 3.64L446.00 3.64L446.00 3.64Q445.46 3.64 445.29 3.73L445.29 3.73L445.29 3.73Q445.15 3.81 445.15 4.28L445.15 4.28L445.15 11.22L445.15 11.22Q445.15 11.68 445.26 11.77L445.26 11.77L445.26 11.77Q445.37 11.87 445.90 11.87L445.90 11.87L446.45 11.87L446.46 12.41L442.88 12.41L442.87 11.87L443.23 11.87L443.23 11.87Q443.79 11.87 443.90 11.77L443.90 11.77L443.90 11.77Q444.01 11.67 444.01 11.25L444.01 11.25L444.01 4.14L444.01 4.14Q444.01 3.77 443.91 3.71L443.91 3.71L443.91 3.71Q443.80 3.64 443.30 3.64L443.30 3.64ZM457.93 12.41L454.20 12.41L454.20 11.87L454.64 11.87L454.64 11.87Q455.01 11.87 455.07 11.81L455.07 11.81L455.07 11.81Q455.14 11.74 455.14 11.46L455.14 11.46L455.14 4.14L455.14 4.14Q455.14 3.81 455.06 3.72L455.06 3.72L455.06 3.72Q454.97 3.64 454.61 3.64L454.61 3.64L454.24 3.64L454.25 3.08L457.14 3.08L457.14 3.08Q458.29 3.08 458.94 3.19L458.94 3.19L458.94 3.19Q459.54 3.28 460.01 3.68L460.01 3.68L460.01 3.68Q461.20 4.64 461.20 6.19L461.20 6.19L461.20 6.19Q461.20 7.23 460.43 7.98L460.43 7.98L460.43 7.98Q459.66 8.74 458.25 8.73L458.25 8.73L458.25 8.73Q458.08 8.73 457.66 8.70L457.66 8.70L457.66 8.70Q457.55 8.69 457.13 8.62L457.13 8.62L457.13 8.62Q456.79 8.55 456.70 8.54L456.70 8.54L456.70 8.54Q456.40 8.47 456.39 8.46L456.39 8.46L456.27 8.44L456.27 11.46L456.27 11.46Q456.27 11.74 456.40 11.81L456.40 11.81L456.40 11.81Q456.51 11.87 457.23 11.87L457.23 11.87L457.93 11.87L457.93 12.41ZM456.27 4.28L456.27 8.02L456.27 8.02Q456.62 8.29 457.59 8.29L457.59 8.29L457.59 8.29Q458.73 8.29 459.30 7.75L459.30 7.75L459.30 7.75Q459.89 7.21 459.89 6.16L459.89 6.16L459.89 6.16Q459.89 4.98 458.98 4.31L458.98 4.31L458.98 4.31Q458.08 3.64 456.70 3.64L456.70 3.64L456.70 3.64Q456.44 3.64 456.36 3.75L456.36 3.75L456.36 3.75Q456.28 3.84 456.27 4.28L456.27 4.28ZM469.15 10.04L469.15 10.04L469.64 9.98L469.83 10.85L469.83 10.85Q469.94 11.33 470.00 11.41L470.00 11.41L470.00 11.41Q470.07 11.49 470.48 11.64L470.48 11.64L470.48 11.64Q471.32 11.95 472.22 11.95L472.22 11.95L472.22 11.95Q473.01 11.95 473.55 11.49L473.55 11.49L473.55 11.49Q474.08 11.04 474.08 10.26L474.08 10.26L474.08 10.26Q474.08 9.65 473.62 9.21L473.62 9.21L473.62 9.21Q473.14 8.76 472.29 8.30L472.29 8.30L471.71 7.98L471.71 7.98Q470.97 7.55 470.74 7.36L470.74 7.36L470.74 7.36Q470.37 7.08 470.06 6.59L470.06 6.59L470.06 6.59Q469.75 6.10 469.75 5.46L469.75 5.46L469.75 5.46Q469.75 4.39 470.59 3.68L470.59 3.68L470.59 3.68Q471.43 2.97 472.54 2.97L472.54 2.97L472.54 2.97Q472.82 2.97 473.17 3.04L473.17 3.04L473.17 3.04Q473.37 3.08 473.70 3.17L473.70 3.17L473.94 3.25L473.94 3.25Q474.04 3.25 474.08 3.16L474.08 3.16L474.08 3.16Q474.13 3.05 474.13 2.98L474.13 2.98L474.15 2.88L474.63 2.85L474.84 5.41L474.33 5.43L474.21 4.18L474.21 4.18Q473.46 3.62 472.30 3.62L472.30 3.62L472.30 3.62Q471.66 3.62 471.15 4.05L471.15 4.05L471.15 4.05Q470.67 4.47 470.67 5.12L470.67 5.12L470.67 5.12Q470.67 5.72 471.13 6.17L471.13 6.17L471.13 6.17Q471.56 6.60 472.42 7.08L472.42 7.08L473.20 7.50L473.20 7.50Q474.15 8.03 474.68 8.59L474.68 8.59L474.68 8.59Q475.21 9.15 475.21 9.92L475.21 9.92L475.21 9.92Q475.21 10.99 474.36 11.76L474.36 11.76L474.36 11.76Q473.49 12.54 472.04 12.54L472.04 12.54L472.04 12.54Q471.47 12.54 470.97 12.41L470.97 12.41L470.97 12.41Q470.47 12.29 470.42 12.29L470.42 12.29L470.42 12.29Q470.16 12.29 470.16 12.58L470.16 12.58L470.18 12.76L469.70 12.80L469.70 12.80Q469.64 12.41 469.15 10.04Z"></path></g></svg>