<svg data-v-423bf9ae="" xmlns="http://www.w3.org/2000/svg" viewBox="0 0 509.97579791711075 60" class="font"><!----><!----><!----><g data-v-423bf9ae="" id="d8926036-ba3a-4bfe-873f-bef7e2d1ebe6" fill="black" transform="matrix(4.8426148779193,0,0,4.8426148779193,-3.2445455648664847,-17.62711937889251)"><path d="M4.48 3.64L4.48 3.64Q6.96 3.64 8.05 5.60L8.05 5.60L7.08 6.38L7.08 6.38Q6.66 5.46 6.08 5.07L6.08 5.07L6.08 5.07Q5.50 4.69 4.49 4.69L4.49 4.69L4.49 4.69Q3.43 4.69 2.82 5.13L2.82 5.13L2.82 5.13Q2.21 5.57 2.21 6.26L2.21 6.26L2.21 6.26Q2.21 6.71 2.45 7.00L2.45 7.00L2.45 7.00Q2.69 7.29 3.24 7.51L3.24 7.51L3.24 7.51Q3.79 7.73 4.77 7.90L4.77 7.90L4.77 7.90Q6.61 8.20 7.37 8.82L7.37 8.82L7.37 8.82Q8.13 9.44 8.13 10.53L8.13 10.53L8.13 10.53Q8.13 11.31 7.69 11.91L7.69 11.91L7.69 11.91Q7.25 12.50 6.44 12.83L6.44 12.83L6.44 12.83Q5.63 13.16 4.56 13.16L4.56 13.16L4.56 13.16Q3.16 13.16 2.18 12.61L2.18 12.61L2.18 12.61Q1.19 12.07 0.67 11.16L0.67 11.16L1.64 10.37L1.64 10.37Q2.02 11.20 2.75 11.65L2.75 11.65L2.75 11.65Q3.49 12.11 4.59 12.11L4.59 12.11L4.59 12.11Q5.68 12.11 6.33 11.71L6.33 11.71L6.33 11.71Q6.97 11.31 6.97 10.58L6.97 10.58L6.97 10.58Q6.97 9.97 6.41 9.60L6.41 9.60L6.41 9.60Q5.85 9.24 4.42 8.99L4.42 8.99L4.42 8.99Q2.58 8.67 1.81 8.06L1.81 8.06L1.81 8.06Q1.04 7.46 1.04 6.38L1.04 6.38L1.04 6.38Q1.04 5.64 1.46 5.01L1.46 5.01L1.46 5.01Q1.88 4.38 2.66 4.01L2.66 4.01L2.66 4.01Q3.44 3.64 4.48 3.64L4.48 3.64ZM16.28 9.16L16.28 9.16Q16.28 9.55 16.23 9.94L16.23 9.94L10.95 9.94L10.95 9.94Q11.05 11.00 11.66 11.59L11.66 11.59L11.66 11.59Q12.26 12.18 13.23 12.18L13.23 12.18L13.23 12.18Q14 12.18 14.51 11.91L14.51 11.91L14.51 11.91Q15.02 11.65 15.20 11.14L15.20 11.14L16.14 11.63L16.14 11.63Q15.72 12.38 15.02 12.77L15.02 12.77L15.02 12.77Q14.32 13.16 13.23 13.16L13.23 13.16L13.23 13.16Q11.65 13.16 10.75 12.19L10.75 12.19L10.75 12.19Q9.84 11.23 9.84 9.52L9.84 9.52L9.84 9.52Q9.84 7.81 10.70 6.85L10.70 6.85L10.70 6.85Q11.56 5.88 13.15 5.88L13.15 5.88L13.15 5.88Q14.13 5.88 14.84 6.31L14.84 6.31L14.84 6.31Q15.55 6.75 15.92 7.49L15.92 7.49L15.92 7.49Q16.28 8.23 16.28 9.16L16.28 9.16ZM13.15 6.86L13.15 6.86Q12.22 6.86 11.66 7.41L11.66 7.41L11.66 7.41Q11.09 7.95 10.96 8.95L10.96 8.95L15.20 8.95L15.20 8.95Q15.09 7.97 14.56 7.41L14.56 7.41L14.56 7.41Q14.03 6.86 13.15 6.86L13.15 6.86ZM21.71 5.88L21.71 5.88Q22.22 5.88 22.48 6.02L22.48 6.02L22.26 7.11L22.26 7.11Q21.92 6.93 21.38 6.93L21.38 6.93L21.38 6.93Q20.93 6.93 20.50 7.19L20.50 7.19L20.50 7.19Q20.08 7.45 19.80 7.97L19.80 7.97L19.80 7.97Q19.53 8.50 19.53 9.24L19.53 9.24L19.53 13.02L18.41 13.02L18.41 6.02L19.32 6.02L19.47 7.17L19.47 7.17Q20.06 5.88 21.71 5.88L21.71 5.88ZM28.76 6.02L29.93 6.02L27.02 13.02L25.90 13.02L22.99 6.02L24.26 6.02L26.47 11.89L28.76 6.02ZM37.41 9.16L37.41 9.16Q37.41 9.55 37.35 9.94L37.35 9.94L32.07 9.94L32.07 9.94Q32.17 11.00 32.78 11.59L32.78 11.59L32.78 11.59Q33.39 12.18 34.36 12.18L34.36 12.18L34.36 12.18Q35.13 12.18 35.64 11.91L35.64 11.91L35.64 11.91Q36.15 11.65 36.33 11.14L36.33 11.14L37.27 11.63L37.27 11.63Q36.85 12.38 36.15 12.77L36.15 12.77L36.15 12.77Q35.45 13.16 34.36 13.16L34.36 13.16L34.36 13.16Q32.77 13.16 31.87 12.19L31.87 12.19L31.87 12.19Q30.97 11.23 30.97 9.52L30.97 9.52L30.97 9.52Q30.97 7.81 31.83 6.85L31.83 6.85L31.83 6.85Q32.69 5.88 34.27 5.88L34.27 5.88L34.27 5.88Q35.25 5.88 35.97 6.31L35.97 6.31L35.97 6.31Q36.68 6.75 37.04 7.49L37.04 7.49L37.04 7.49Q37.41 8.23 37.41 9.16L37.41 9.16ZM34.27 6.86L34.27 6.86Q33.35 6.86 32.78 7.41L32.78 7.41L32.78 7.41Q32.21 7.95 32.09 8.95L32.09 8.95L36.33 8.95L36.33 8.95Q36.22 7.97 35.69 7.41L35.69 7.41L35.69 7.41Q35.15 6.86 34.27 6.86L34.27 6.86ZM42.84 5.88L42.84 5.88Q43.34 5.88 43.61 6.02L43.61 6.02L43.39 7.11L43.39 7.11Q43.05 6.93 42.50 6.93L42.50 6.93L42.50 6.93Q42.06 6.93 41.63 7.19L41.63 7.19L41.63 7.19Q41.20 7.45 40.93 7.97L40.93 7.97L40.93 7.97Q40.66 8.50 40.66 9.24L40.66 9.24L40.66 13.02L39.54 13.02L39.54 6.02L40.45 6.02L40.60 7.17L40.60 7.17Q41.19 5.88 42.84 5.88L42.84 5.88ZM58.84 3.78L58.84 13.02L57.78 13.02L57.78 7.21L57.90 4.77L57.89 4.77L54.85 13.02L53.90 13.02L50.86 4.77L50.85 4.77L50.97 7.21L50.97 13.02L49.91 13.02L49.91 3.78L51.63 3.78L53.66 9.39L54.36 11.70L54.39 11.70L55.10 9.41L57.12 3.78L58.84 3.78ZM67.31 12.21L67.31 12.21Q67.59 12.21 67.87 12.14L67.87 12.14L67.80 13.02L67.80 13.02Q67.41 13.16 66.96 13.16L66.96 13.16L66.96 13.16Q66.42 13.16 66.10 12.92L66.10 12.92L66.10 12.92Q65.79 12.68 65.70 12.12L65.70 12.12L65.70 12.12Q65.38 12.61 64.76 12.89L64.76 12.89L64.76 12.89Q64.13 13.16 63.45 13.16L63.45 13.16L63.45 13.16Q62.41 13.16 61.74 12.68L61.74 12.68L61.74 12.68Q61.07 12.19 61.07 11.28L61.07 11.28L61.07 11.28Q61.07 10.49 61.77 9.90L61.77 9.90L61.77 9.90Q62.47 9.32 63.80 9.10L63.80 9.10L65.66 8.79L65.66 8.40L65.66 8.40Q65.66 7.70 65.23 7.28L65.23 7.28L65.23 7.28Q64.79 6.86 64.02 6.86L64.02 6.86L64.02 6.86Q63.32 6.86 62.81 7.20L62.81 7.20L62.81 7.20Q62.30 7.53 62.02 8.19L62.02 8.19L61.19 7.59L61.19 7.59Q61.47 6.80 62.24 6.34L62.24 6.34L62.24 6.34Q63.00 5.88 64.02 5.88L64.02 5.88L64.02 5.88Q65.27 5.88 66.02 6.48L66.02 6.48L66.02 6.48Q66.78 7.08 66.78 8.26L66.78 8.26L66.78 11.70L66.78 11.70Q66.78 11.96 66.91 12.08L66.91 12.08L66.91 12.08Q67.03 12.21 67.31 12.21L67.31 12.21ZM63.50 12.18L63.50 12.18Q64.39 12.18 65.02 11.76L65.02 11.76L65.02 11.76Q65.66 11.34 65.66 10.67L65.66 10.67L65.66 9.70L64.09 10.00L64.09 10.00Q63.15 10.16 62.69 10.48L62.69 10.48L62.69 10.48Q62.23 10.79 62.23 11.28L62.23 11.28L62.23 11.28Q62.23 11.72 62.57 11.95L62.57 11.95L62.57 11.95Q62.90 12.18 63.50 12.18L63.50 12.18ZM72.90 5.88L72.90 5.88Q74.09 5.88 74.86 6.57L74.86 6.57L74.86 6.57Q75.63 7.25 75.63 8.54L75.63 8.54L75.63 13.02L74.51 13.02L74.51 8.93L74.51 8.93Q74.51 7.84 74.04 7.35L74.04 7.35L74.04 7.35Q73.57 6.86 72.79 6.86L72.79 6.86L72.79 6.86Q72.23 6.86 71.74 7.10L71.74 7.10L71.74 7.10Q71.25 7.35 70.93 7.90L70.93 7.90L70.93 7.90Q70.62 8.46 70.62 9.30L70.62 9.30L70.62 13.02L69.50 13.02L69.50 6.02L70.48 6.02L70.55 7.11L70.55 7.11Q70.90 6.48 71.51 6.18L71.51 6.18L71.51 6.18Q72.13 5.88 72.90 5.88L72.90 5.88ZM83.90 12.21L83.90 12.21Q84.18 12.21 84.46 12.14L84.46 12.14L84.39 13.02L84.39 13.02Q84 13.16 83.55 13.16L83.55 13.16L83.55 13.16Q83.01 13.16 82.69 12.92L82.69 12.92L82.69 12.92Q82.38 12.68 82.29 12.12L82.29 12.12L82.29 12.12Q81.97 12.61 81.35 12.89L81.35 12.89L81.35 12.89Q80.72 13.16 80.04 13.16L80.04 13.16L80.04 13.16Q79.00 13.16 78.33 12.68L78.33 12.68L78.33 12.68Q77.66 12.19 77.66 11.28L77.66 11.28L77.66 11.28Q77.66 10.49 78.36 9.90L78.36 9.90L78.36 9.90Q79.06 9.32 80.39 9.10L80.39 9.10L82.25 8.79L82.25 8.40L82.25 8.40Q82.25 7.70 81.82 7.28L81.82 7.28L81.82 7.28Q81.38 6.86 80.61 6.86L80.61 6.86L80.61 6.86Q79.91 6.86 79.40 7.20L79.40 7.20L79.40 7.20Q78.89 7.53 78.61 8.19L78.61 8.19L77.78 7.59L77.78 7.59Q78.06 6.80 78.83 6.34L78.83 6.34L78.83 6.34Q79.59 5.88 80.61 5.88L80.61 5.88L80.61 5.88Q81.86 5.88 82.61 6.48L82.61 6.48L82.61 6.48Q83.37 7.08 83.37 8.26L83.37 8.26L83.37 11.70L83.37 11.70Q83.37 11.96 83.50 12.08L83.50 12.08L83.50 12.08Q83.62 12.21 83.90 12.21L83.90 12.21ZM80.09 12.18L80.09 12.18Q80.98 12.18 81.61 11.76L81.61 11.76L81.61 11.76Q82.25 11.34 82.25 10.67L82.25 10.67L82.25 9.70L80.68 10.00L80.68 10.00Q79.74 10.16 79.28 10.48L79.28 10.48L79.28 10.48Q78.82 10.79 78.82 11.28L78.82 11.28L78.82 11.28Q78.82 11.72 79.16 11.95L79.16 11.95L79.16 11.95Q79.49 12.18 80.09 12.18L80.09 12.18ZM89.99 12.12L89.99 12.12Q90.99 12.12 91.55 12.57L91.55 12.57L91.55 12.57Q92.11 13.02 92.11 13.79L92.11 13.79L92.11 13.79Q92.11 14.46 91.64 14.97L91.64 14.97L91.64 14.97Q91.18 15.48 90.39 15.76L90.39 15.76L90.39 15.76Q89.60 16.03 88.65 16.03L88.65 16.03L88.65 16.03Q87.05 16.03 86.24 15.52L86.24 15.52L86.24 15.52Q85.43 15.01 85.43 14.18L85.43 14.18L85.43 14.18Q85.43 13.71 85.76 13.34L85.76 13.34L85.76 13.34Q86.09 12.98 86.66 12.82L86.66 12.82L86.66 12.82Q86.23 12.61 85.97 12.29L85.97 12.29L85.97 12.29Q85.71 11.97 85.71 11.54L85.71 11.54L85.71 11.54Q85.71 11.02 85.99 10.67L85.99 10.67L85.99 10.67Q86.27 10.33 86.76 10.16L86.76 10.16L86.76 10.16Q86.25 9.86 86.00 9.36L86.00 9.36L86.00 9.36Q85.74 8.86 85.74 8.25L85.74 8.25L85.74 8.25Q85.74 7.56 86.10 7.02L86.10 7.02L86.10 7.02Q86.46 6.48 87.12 6.18L87.12 6.18L87.12 6.18Q87.78 5.88 88.61 5.88L88.61 5.88L88.61 5.88Q89.39 5.88 90.03 6.16L90.03 6.16L90.03 6.16Q90.43 4.73 92.01 4.73L92.01 4.73L92.26 5.71L92.26 5.71Q90.89 5.71 90.59 6.48L90.59 6.48L90.59 6.48Q91.01 6.80 91.25 7.25L91.25 7.25L91.25 7.25Q91.48 7.70 91.48 8.25L91.48 8.25L91.48 8.25Q91.48 8.93 91.11 9.47L91.11 9.47L91.11 9.47Q90.75 10.01 90.09 10.31L90.09 10.31L90.09 10.31Q89.43 10.61 88.61 10.61L88.61 10.61L88.61 10.61Q87.99 10.61 87.53 10.49L87.53 10.49L87.53 10.49Q87.11 10.58 86.93 10.79L86.93 10.79L86.93 10.79Q86.74 11.00 86.74 11.37L86.74 11.37L86.74 11.37Q86.74 11.73 87.00 11.93L87.00 11.93L87.00 11.93Q87.25 12.12 87.67 12.12L87.67 12.12L89.99 12.12ZM88.61 6.79L88.61 6.79Q87.88 6.79 87.39 7.20L87.39 7.20L87.39 7.20Q86.90 7.60 86.90 8.25L86.90 8.25L86.90 8.25Q86.90 8.89 87.39 9.30L87.39 9.30L87.39 9.30Q87.88 9.70 88.61 9.70L88.61 9.70L88.61 9.70Q89.33 9.70 89.82 9.30L89.82 9.30L89.82 9.30Q90.31 8.89 90.31 8.25L90.31 8.25L90.31 8.25Q90.31 7.60 89.82 7.20L89.82 7.20L89.82 7.20Q89.33 6.79 88.61 6.79L88.61 6.79ZM88.77 15.09L88.77 15.09Q89.84 15.09 90.45 14.75L90.45 14.75L90.45 14.75Q91.07 14.41 91.07 13.92L91.07 13.92L91.07 13.92Q91.07 13.51 90.76 13.30L90.76 13.30L90.76 13.30Q90.44 13.09 89.68 13.09L89.68 13.09L87.81 13.09L87.81 13.09Q87.16 13.09 86.81 13.32L86.81 13.32L86.81 13.32Q86.46 13.55 86.46 13.96L86.46 13.96L86.46 13.96Q86.46 14.49 87.05 14.79L87.05 14.79L87.05 14.79Q87.64 15.09 88.77 15.09L88.77 15.09ZM99.78 9.16L99.78 9.16Q99.78 9.55 99.72 9.94L99.72 9.94L94.44 9.94L94.44 9.94Q94.54 11.00 95.15 11.59L95.15 11.59L95.15 11.59Q95.76 12.18 96.73 12.18L96.73 12.18L96.73 12.18Q97.50 12.18 98.01 11.91L98.01 11.91L98.01 11.91Q98.52 11.65 98.70 11.14L98.70 11.14L99.64 11.63L99.64 11.63Q99.22 12.38 98.52 12.77L98.52 12.77L98.52 12.77Q97.82 13.16 96.73 13.16L96.73 13.16L96.73 13.16Q95.14 13.16 94.24 12.19L94.24 12.19L94.24 12.19Q93.34 11.23 93.34 9.52L93.34 9.52L93.34 9.52Q93.34 7.81 94.20 6.85L94.20 6.85L94.20 6.85Q95.06 5.88 96.64 5.88L96.64 5.88L96.64 5.88Q97.62 5.88 98.34 6.31L98.34 6.31L98.34 6.31Q99.05 6.75 99.41 7.49L99.41 7.49L99.41 7.49Q99.78 8.23 99.78 9.16L99.78 9.16ZM96.64 6.86L96.64 6.86Q95.72 6.86 95.15 7.41L95.15 7.41L95.15 7.41Q94.58 7.95 94.46 8.95L94.46 8.95L98.70 8.95L98.70 8.95Q98.59 7.97 98.06 7.41L98.06 7.41L98.06 7.41Q97.52 6.86 96.64 6.86L96.64 6.86ZM105.21 5.88L105.21 5.88Q105.71 5.88 105.98 6.02L105.98 6.02L105.76 7.11L105.76 7.11Q105.42 6.93 104.87 6.93L104.87 6.93L104.87 6.93Q104.43 6.93 104.00 7.19L104.00 7.19L104.00 7.19Q103.57 7.45 103.30 7.97L103.30 7.97L103.30 7.97Q103.03 8.50 103.03 9.24L103.03 9.24L103.03 13.02L101.91 13.02L101.91 6.02L102.82 6.02L102.97 7.17L102.97 7.17Q103.56 5.88 105.21 5.88L105.21 5.88Z"></path></g><!----><!----></svg>